<?xml version="1.0" encoding="UTF-8"?>
<svg xmlns="http://www.w3.org/2000/svg" xmlns:xlink="http://www.w3.org/1999/xlink" width="570" height="864" viewBox="75 110 570 864">
  <defs>
    <linearGradient id="b">
      <stop offset="0" stop-color="#3465a4"/>
      <stop offset="1" stop-color="#fff" stop-opacity="0"/>
    </linearGradient>
    <linearGradient id="c">
      <stop offset="0" stop-color="#fff"/>
      <stop offset="1" stop-color="#fff" stop-opacity="0"/>
    </linearGradient>
    <linearGradient id="a">
      <stop offset="0" stop-color="#729fcf"/>
      <stop offset="1" stop-color="#729fcf" stop-opacity="0"/>
    </linearGradient>
    <linearGradient id="d" x1="43.943802" x2="411.39359" y1="733.39258" y2="425.06561" gradientTransform="matrix(.91696 0 0 .91201 60.201795 153.71221)" gradientUnits="userSpaceOnUse">
      <stop offset=".0562" stop-color="#8f5902"/>
      <stop offset=".56739998" stop-color="#e9b96e"/>
      <stop offset=".9551" stop-color="#8f5902"/>
    </linearGradient>
    <linearGradient id="f">
      <stop offset="0" stop-color="#fff"/>
      <stop offset="1" stop-color="#fff" stop-opacity="0"/>
    </linearGradient>
    <linearGradient id="e">
      <stop offset="0" stop-color="#fff"/>
      <stop offset="1" stop-color="#fff" stop-opacity="0"/>
    </linearGradient>
    <linearGradient id="h">
      <stop offset="0"/>
      <stop offset="1" stop-opacity="0"/>
    </linearGradient>
    <linearGradient id="i">
      <stop offset="0"/>
      <stop offset="1" stop-opacity="0"/>
    </linearGradient>
    <linearGradient id="g">
      <stop offset="0" stop-color="#fff"/>
      <stop offset=".5" stop-color="#edd400" stop-opacity=".89411765"/>
      <stop offset="1" stop-color="#edd400" stop-opacity="0"/>
    </linearGradient>
    <linearGradient xlink:href="#a" id="m" x1="181.91545" x2="530.7077" y1="460.80319" y2="460.80319" gradientUnits="userSpaceOnUse"/>
    <linearGradient xlink:href="#b" id="n" x1="176.41545" x2="536.2077" y1="460.80319" y2="460.80319" gradientUnits="userSpaceOnUse"/>
    <linearGradient xlink:href="#c" id="w" x1="122.90625" x2="589.71875" y1="148.46875" y2="148.46875" gradientUnits="userSpaceOnUse"/>
    <linearGradient xlink:href="#c" id="x" x1="152.60632" x2="560.01691" y1="188.51369" y2="188.51369" gradientUnits="userSpaceOnUse"/>
    <linearGradient xlink:href="#c" id="y" x1="121.53263" x2="591.09058" y1="780.2948" y2="780.2948" gradientUnits="userSpaceOnUse"/>
    <linearGradient xlink:href="#c" id="z" x1="152.60632" x2="560.01691" y1="738.86322" y2="738.86322" gradientUnits="userSpaceOnUse"/>
    <linearGradient xlink:href="#d" id="v" x1="121.03263" x2="591.59058" y1="780.2948" y2="780.2948" gradientTransform="translate(0 32)" gradientUnits="userSpaceOnUse"/>
    <linearGradient xlink:href="#d" id="u" x1="119.03263" x2="593.59058" y1="148.46317" y2="148.46317" gradientTransform="translate(0 32)" gradientUnits="userSpaceOnUse"/>
    <linearGradient xlink:href="#e" id="s" x1="209.24895" x2="309.8558" y1="628.47852" y2="628.47852" gradientTransform="translate(0 32)" gradientUnits="userSpaceOnUse"/>
    <linearGradient xlink:href="#e" id="t" x1="209.24895" x2="309.8558" y1="628.47852" y2="628.47852" gradientTransform="translate(0 32)" gradientUnits="userSpaceOnUse"/>
    <linearGradient xlink:href="#f" id="q" x1="212.48254" x2="336.07159" y1="315.57053" y2="315.57053" gradientTransform="translate(0 32)" gradientUnits="userSpaceOnUse"/>
    <linearGradient xlink:href="#f" id="r" x1="217.98254" x2="330.57159" y1="315.57053" y2="315.57053" gradientTransform="translate(0 32)" gradientUnits="userSpaceOnUse"/>
    <linearGradient xlink:href="#d" id="p" x1="152.10632" x2="560.51691" y1="738.86322" y2="738.86322" gradientTransform="translate(0 32)" gradientUnits="userSpaceOnUse"/>
    <linearGradient xlink:href="#d" id="o" x1="152.10632" x2="560.51691" y1="188.51369" y2="188.51369" gradientTransform="translate(0 32)" gradientUnits="userSpaceOnUse"/>
    <linearGradient xlink:href="#g" id="k" x1="187.33771" x2="529.75684" y1="626.79388" y2="626.79388" gradientTransform="translate(0 32)" gradientUnits="userSpaceOnUse"/>
    <linearGradient xlink:href="#h" id="l" x1="187.33771" x2="529.75686" y1="626.79386" y2="626.79386" gradientTransform="translate(0 32)" gradientUnits="userSpaceOnUse"/>
    <radialGradient xlink:href="#i" id="j" cx="31.112698" cy="19.008621" r="8.6620579" fx="31.112698" fy="19.008621" gradientUnits="userSpaceOnUse"/>
  </defs>
  <path fill="none" d="M-64.879845 115.85572h850v850h-850z"/>
  <path fill="url(#j)" fill-rule="evenodd" d="M39.774755 19.008621a8.6620579 8.6620579 0 1 1-17.324115 0 8.6620579 8.6620579 0 1 1 17.324115 0z" overflow="visible" style="marker:none" transform="matrix(31.4206 0 0 5.05052 -615.06629 811.44804)"/>
  <path fill="url(#k)" fill-rule="evenodd" stroke="url(#l)" stroke-width="12" d="M189.06106 756.29058s-5.52421-67.67158 6.90527-89.76843c12.42947-22.09684 52.48001-56.62316 70.43369-66.29053 17.95369-9.66736 48.33684-48.33685 69.05264-48.33685 20.71579 0 38.66947-1.38105 48.33684 5.52422 9.66737 6.90526 44.19369 40.05053 63.52843 48.33685 19.33473 8.28631 55.24211 20.71578 71.81474 60.76631 16.57264 40.05053 9.66737 84.24422 1.38105 93.91159-8.28631 9.66736-296.92634 4.14316-306.5937 0-9.66737-4.14316-23.4779-4.14316-24.85896-4.14316z"/>
  <path fill="url(#m)" fill-rule="evenodd" stroke="url(#n)" stroke-linejoin="round" stroke-width="12" d="M321.9375 188.59375c-33.54083.03416-65.55919.54143-89.875 1.71875-12.15791.58866-22.40069 1.33462-29.8125 2.25-3.7059.45769-6.71009.95639-8.75 1.4375-1.12757.26594-1.93775.65896-2.3125.8125-.206.29805-.85566 1.27735-1.3125 3.6875-.53943 2.84584-.7115 7.07012-.375 12.125.67301 10.10975 3.29027 23.5933 7.4375 38.25 8.29446 29.31341 22.69663 63.4621 38.5625 87 15.74782 23.36275 42.34815 47.71639 65.125 68.15625 11.38842 10.21993 21.81346 19.47243 29.625 27.46875 3.90577 3.99816 7.14901 7.66552 9.625 11.21875 2.47599 3.55323 4.5325 6.96307 4.53125 11.625-.00217 8.10532-5.15091 13.71593-11.65625 20.53125s-15.2679 14.53739-25.5625 23.6875c-20.5892 18.30022-47.1818 42.18828-72.03125 73.34375-39.56998 49.61162-51.18162 111.35665-39.46875 158.125 2.05386.44533 5.43735.89603 9.84375 1.28125 8.98146.78517 21.98332 1.29705 37.5 1.53125 31.03337.4684 72.21742-.07389 113.09375-1.125.12498-.0034.25002-.0034.375 0 40.87634 1.05112 82.06038 1.5934 113.09375 1.125 15.51668-.2342 28.51854-.74608 37.5-1.53125 4.4064-.38522 7.7899-.83592 9.84375-1.28125 11.71288-46.76834.10124-108.51339-39.46875-158.125-24.84945-31.15547-51.44205-55.04352-72.03125-73.34375-10.2946-9.15011-19.05716-16.87218-25.5625-23.6875s-11.65408-12.42593-11.65625-20.53125c-.00125-4.66193 2.05525-8.07177 4.53125-11.625 2.476-3.55323 5.71923-7.22059 9.625-11.21875 7.81154-7.99632 18.23658-17.24882 29.625-27.46875 22.77685-20.43986 49.37719-44.7935 65.125-68.15625 15.86588-23.53789 30.26804-57.68659 38.5625-87 4.14723-14.6567 6.76449-28.14025 7.4375-38.25.3365-5.05488.16443-9.27916-.375-12.125-.45684-2.41015-1.10649-3.38945-1.3125-3.6875-.37475-.15354-1.18493-.54656-2.3125-.8125-2.03991-.48111-5.0441-.97981-8.75-1.4375-7.4118-.91538-17.65459-1.66134-29.8125-2.25-24.31581-1.17732-56.33417-1.68459-89.875-1.71875-11.33372-.01154-22.8376.06299-34.3125.15625-.04167.00038-.08333.00038-.125 0-11.47489-.09326-22.97876-.16779-34.3125-.15625z" transform="translate(0 32)"/>
  <rect width="407.41055" height="42.812634" x="152.60632" y="199.10738" fill="url(#o)" ry="21.406317"/>
  <rect width="407.41055" height="42.812634" x="152.60632" y="749.45691" fill="url(#p)" ry="21.406317"/>
  <path fill="url(#q)" fill-rule="evenodd" stroke="url(#r)" stroke-linejoin="round" stroke-width="12" d="M219.58738 273.68423s-2.7621-17.95369 17.95369-17.95369c33.11045 11.00834 19.30922 51.52393 33.14527 78.72001 22.09684 38.66948 59.38526 109.10316 59.38526 109.10316s-81.48211-64.90947-93.91158-103.57895c-12.42948-38.66948-17.95369-66.29053-16.57264-66.29053z"/>
  <path fill="url(#s)" fill-rule="evenodd" stroke="url(#t)" stroke-linejoin="round" stroke-width="12" d="M307.97476 581.65899s-56.62316 52.48-74.57685 78.72c-17.95368 26.24001-24.85895 52.48001-23.47789 66.29053 1.38105 13.81053 42.81263-1.38105 49.71789-11.04842 6.90526-9.66737-1.38105-37.28842 9.66737-58.00421s40.05053-58.00422 40.05053-58.00422l-1.38105-17.95368z"/>
  <rect width="469.55792" height="59.385269" x="121.53263" y="150.77054" fill="url(#u)" ry="29.692635"/>
  <rect width="469.55792" height="59.385269" x="121.53263" y="782.60217" fill="url(#v)" ry="29.692635"/>
  <path fill="none" stroke="#2e3436" stroke-width="15" d="M151.21875 146.125c-18.95356 0-34.34375 15.3902-34.34375 34.34375 0 18.08528 14.06153 32.77105 31.8125 34.09375-.44682 1.91248-.75 3.89426-.75 5.9375 0 14.36389 11.69862 26.0625 26.0625 26.0625h4.375c3.15625 34.54876 22.84348 91.12433 47.53125 127.75 17.00712 25.231 44.17498 49.86067 67 70.34375 11.41251 10.24154 21.73906 19.44083 29.0625 26.9375 3.66172 3.74833 6.57984 7.08412 8.4375 9.75 1.85766 2.66588 2.43759 4.68262 2.4375 5-.00039 1.45986-2.52803 6.37144-8.4375 12.5625S309.81293 512.7711 299.5 521.9375c-20.62586 18.33281-47.81638 42.70539-73.375 74.75-36.45778 45.70965-50.64466 101.01663-45.25 148.125H174c-14.36389 0-26.0625 11.69862-26.0625 26.0625 0 2.52507.38878 4.97054 1.0625 7.28125-17.9003 1.16884-32.125 15.93252-32.125 34.125 0 18.95356 15.38428 34.37502 34.34375 34.375h410.1875c18.95946 0 34.34373-15.42144 34.34375-34.375 0-18.19249-14.22472-32.95616-32.125-34.125.67372-2.31072 1.06251-4.75617 1.0625-7.28125 0-14.36388-11.69859-26.0625-26.0625-26.0625h-6.875c5.39466-47.10836-8.7922-102.41536-45.25-148.125-25.55862-32.0446-52.74914-56.41719-73.375-74.75-10.31293-9.1664-18.99678-16.84019-24.90625-23.03125-5.90947-6.19106-8.43711-11.10265-8.4375-12.5625-.00008-.31738.57984-2.33412 2.4375-5s4.77578-6.00167 8.4375-9.75c7.32344-7.49667 17.64999-16.69596 29.0625-26.9375 22.82502-20.48309 49.99288-45.11275 67-70.34375 24.68866-36.62698 44.34614-93.20372 47.5-127.75h4.40625c14.36389 0 26.06254-11.69859 26.0625-26.0625 0-2.04324-.30318-4.02502-.75-5.9375 17.75096-1.3227 31.81248-16.00847 31.8125-34.09375 0-18.95356-15.39022-34.34375-34.34375-34.34375h-410.1875z"/>
  <path fill="none" stroke="url(#w)" stroke-linecap="round" stroke-linejoin="round" stroke-width="12" d="M151.21875 127.0625c-12.00415 0-21.40625 9.40211-21.40625 21.40625 0 12.00416 9.40209 21.40625 21.40625 21.40625h410.1875c12.00416 0 21.40624-9.40207 21.40625-21.40625 0-12.00415-9.40213-21.40625-21.40625-21.40625h-410.1875z" transform="translate(0 32)"/>
  <path fill="none" stroke="url(#x)" stroke-linecap="round" stroke-linejoin="round" stroke-width="12" d="M174 172.625c-8.89426 0-15.875 6.98075-15.875 15.875 0 8.89426 6.98075 15.875 15.875 15.875h364.625c8.89426 0 15.87502-6.98074 15.875-15.875 0-8.89427-6.98071-15.875-15.875-15.875H174z" transform="translate(0 32)"/>
  <path fill="none" stroke="url(#y)" stroke-linecap="round" stroke-linejoin="round" stroke-width="12" d="M151.21875 760.25c-11.26322 0-20.03125 8.76803-20.03125 20.03125 0 11.26323 8.78028 20.06251 20.03125 20.0625h410.1875c11.25099 0 20.03124-8.79924 20.03125-20.0625 0-11.26322-8.76806-20.03125-20.03125-20.03125h-410.1875z" transform="translate(0 32)"/>
  <path fill="none" stroke="url(#z)" stroke-linecap="round" stroke-linejoin="round" stroke-width="12" d="M174 723c-8.89426 0-15.875 6.98075-15.875 15.875 0 8.89426 6.98076 15.87501 15.875 15.875h364.625c8.89426 0 15.87502-6.98074 15.875-15.875 0-8.89427-6.98071-15.875-15.875-15.875H174z" transform="translate(0 32)"/>
</svg>