<?xml version="1.0" encoding="UTF-8" standalone="no"?>
<svg xmlns="http://www.w3.org/2000/svg"
   xmlns:dc="http://purl.org/dc/elements/1.1/"
   xmlns:cc="http://creativecommons.org/ns#"
   xmlns:rdf="http://www.w3.org/1999/02/22-rdf-syntax-ns#"
   viewBox="0 0 40 20" width="800" height="400">
  <metadata><rdf:RDF><cc:Work rdf:about="">
    <dc:format>image/svg+xml</dc:format>
    <dc:type rdf:resource="http://purl.org/dc/dcmitype/StillImage"/>
    <dc:title>Rainbow diagram</dc:title>
  </cc:Work></rdf:RDF></metadata>
  <g fill="none" stroke-width="1">
    <path style="stroke:#ff0000" d="M1,20A19,19 0 0,1 39,20"/>
    <path style="stroke:#ff7f00" d="M2,20A18,18 0 0,1 38,20"/>
    <path style="stroke:#ffff00" d="M3,20A17,17 0 0,1 37,20"/>
    <path style="stroke:#00ff00" d="M4,20A16,16 0 0,1 36,20"/>
    <path style="stroke:#00ffff" d="M5,20A15,15 0 0,1 35,20"/>
    <path style="stroke:#0000ff" d="M6,20A14,14 0 0,1 34,20"/>
    <path style="stroke:#8f00ff" d="M7,20A13,13 0 0,1 33,20"/>
  </g>
</svg>